<?xml version="1.0" encoding="utf-8"?>
<!-- Generator: Adobe Illustrator 21.0.2, SVG Export Plug-In . SVG Version: 6.00 Build 0)  -->
<svg version="1.1" id="Layer_1" xmlns="http://www.w3.org/2000/svg" xmlns:xlink="http://www.w3.org/1999/xlink" x="0px" y="0px"
	 viewBox="0 0 78 82" style="enable-background:new 0 0 78 82;" xml:space="preserve">
<style type="text/css">
	.st0{fill:#ACACAC;}
</style>
<path class="st0" d="M1,15.4v50.9c0,3.2,2.6,5.8,5.8,5.8h65.4c3.2,0,5.8-2.6,5.8-5.8V15.4c0-3.2-2.6-5.8-5.8-5.8H6.8
	C3.6,9.5,1,12.1,1,15.4z M72.2,68.2H6.8c-1.1,0-2-0.9-2-2V28.1h69.2v38.2C74.1,67.3,73.2,68.2,72.2,68.2z M74.1,15.4v8.8H4.9v-8.8
	c0-1.1,0.9-2,2-2h65.4C73.2,13.4,74.1,14.3,74.1,15.4z"/>
<path class="st0" d="M10.3,20.7c0.5,0,1-0.2,1.4-0.6c0.4-0.4,0.6-0.9,0.6-1.4c0-0.5-0.2-1-0.6-1.4c-0.7-0.7-2-0.7-2.7,0
	c-0.4,0.4-0.6,0.9-0.6,1.4c0,0.5,0.2,1,0.6,1.4C9.2,20.5,9.7,20.7,10.3,20.7z"/>
<path class="st0" d="M17.6,20.7c0.5,0,1-0.2,1.4-0.6c0.4-0.4,0.6-0.9,0.6-1.4c0-0.5-0.2-1-0.6-1.4c-0.7-0.7-2-0.7-2.7,0
	c-0.4,0.4-0.6,0.9-0.6,1.4c0,0.5,0.2,1,0.6,1.4C16.5,20.5,17.1,20.7,17.6,20.7z"/>
<path class="st0" d="M24.9,20.7c0.5,0,1-0.2,1.4-0.6c0.4-0.4,0.6-0.9,0.6-1.4c0-0.5-0.2-1-0.6-1.4c-0.7-0.7-2-0.7-2.7,0
	c-0.4,0.4-0.6,0.9-0.6,1.4c0,0.5,0.2,1,0.6,1.4C23.9,20.5,24.4,20.7,24.9,20.7z"/>
<path class="st0" d="M52.4,37c-0.8-0.7-2-0.6-2.7,0.2c-0.7,0.8-0.6,2,0.2,2.7l9.8,8.3l-9.8,8.3c-0.8,0.7-0.9,1.9-0.2,2.7
	c0.4,0.5,0.9,0.7,1.5,0.7c0.4,0,0.9-0.2,1.2-0.5l11.5-9.8c0.4-0.4,0.7-0.9,0.7-1.5c0-0.6-0.3-1.1-0.7-1.5L52.4,37z"/>
<path class="st0" d="M19.3,48.3l9.7-8.3c0.8-0.7,0.9-1.9,0.2-2.7c-0.7-0.8-1.9-0.9-2.7-0.2l-11.5,9.8c-0.4,0.4-0.7,0.9-0.7,1.5
	c0,0.6,0.3,1.1,0.7,1.5l11.5,9.8c0.4,0.3,0.8,0.5,1.2,0.5c0.6,0,1.1-0.2,1.5-0.7c0.7-0.8,0.6-2-0.2-2.7L19.3,48.3z"/>
<path class="st0" d="M45,34.3c-1-0.4-2.1,0.1-2.5,1.1l-9.7,24.4c-0.4,1,0.1,2.1,1.1,2.5c0.2,0.1,0.5,0.1,0.7,0.1
	c0.8,0,1.5-0.5,1.8-1.2l9.7-24.4C46.5,35.8,46,34.7,45,34.3z"/>
</svg>
