<?xml version="1.0" encoding="utf-8"?>
<!-- Generator: Adobe Illustrator 21.0.2, SVG Export Plug-In . SVG Version: 6.00 Build 0)  -->
<svg version="1.1" id="Layer_1" xmlns="http://www.w3.org/2000/svg" xmlns:xlink="http://www.w3.org/1999/xlink" x="0px" y="0px"
	 viewBox="0 0 78 82" style="enable-background:new 0 0 78 82;" xml:space="preserve">
<style type="text/css">
	.st0{fill:#ACACAC;}
</style>
<path class="st0" d="M73.6,58l-1.3-0.8l3.4-5.8c0.8-1.3,0.3-3-1-3.7l-3.8-2.2l0.2-0.3c0.8-1.3,0.3-3-1-3.7l-6.8-3.9
	c-1.3-0.7-3-0.3-3.7,1l-4.9,8.5L25.3,30.4l4.9-8.4c0.8-1.3,0.3-3-1-3.7l-6.8-3.9c-1.3-0.7-3-0.3-3.7,1l-0.2,0.3l-3.8-2.2
	c-1.3-0.7-3-0.3-3.7,1l-3.4,5.8l-1.3-0.8c-1.3-0.7-3-0.3-3.7,1c-0.8,1.3-0.3,3,1,3.7L4.8,25l-3.4,5.8c-0.8,1.3-0.3,3,1,3.7l3.8,2.2
	L6,37.1c-0.8,1.3-0.3,3,1,3.7l6.8,3.9c1.3,0.7,3,0.3,3.7-1l5-8.5l29.3,16.7l-4.9,8.5c-0.8,1.3-0.3,3,1,3.7l6.8,3.9
	c1.3,0.7,3,0.3,3.7-1l0.2-0.3l3.8,2.2c1.3,0.7,3,0.3,3.7-1l3.4-5.8l1.3,0.8c1.3,0.7,3,0.3,3.7-1C75.3,60.4,74.9,58.7,73.6,58z
	 M9,31.9l-1.5-0.9c0.2-0.3,4-6.8,6.7-11.5l1.5,0.9L9,31.9L9,31.9z M14.2,38.6l-2.1-1.2c1.2-2.1,9-15.4,9.9-16.9l2.1,1.2L14.2,38.6z
	 M55,61.8l-2.1-1.2l9.9-16.9l2.1,1.2C63.5,47.2,56.4,59.4,55,61.8z M62.8,62.6l-1.5-0.9L68,50.3l1.5,0.9L62.8,62.6L62.8,62.6z"/>
</svg>
