<?xml version="1.0" encoding="utf-8"?>
<!-- Generator: Adobe Illustrator 21.0.2, SVG Export Plug-In . SVG Version: 6.00 Build 0)  -->
<svg version="1.1" id="Layer_1" xmlns="http://www.w3.org/2000/svg" xmlns:xlink="http://www.w3.org/1999/xlink" x="0px" y="0px"
	 viewBox="0 0 78 82" style="enable-background:new 0 0 78 82;" xml:space="preserve">
<style type="text/css">
	.st0{fill:#ACACAC;}
</style>
<path class="st0" d="M68.7,16.3c-1.3-6-7.2-9.8-13.2-8.5c-2.3,0.5-4.4,1.7-6,3.5c-1.1-0.1-2.3,0-3.3,0.2c-1.9,0.4-3.6,1.3-5,2.6
	c-0.5-4.6-3.9-8.6-8.7-9.7v0c-1.1-0.2-2.2-0.3-3.3-0.2c-1.6-1.8-3.7-3-6-3.5c-6-1.3-11.9,2.5-13.2,8.5C9.8,9.6,0.7,67.6,0.7,67.6
	L25.5,73l12.9-45.9l14.9,53L78,74.7C78,74.7,68.8,16.7,68.7,16.3z M23.8,70.1L3.4,65.7l0.7-4.1l5.6,1.2l0.5-2.4l-5.7-1.2l6.7-42.1
	c0.8,1.3,1.8,2.5,3.1,3.5l-0.8,3.8c-0.4,1.8-0.1,3.7,0.9,5.3c1,1.6,2.6,2.7,4.4,3.1c0.5,0.1,1,0.2,1.5,0.2c1.3,0,2.6-0.4,3.8-1.1
	c1.6-1,2.7-2.6,3.1-4.4l0.3-1.2c0.1,0,0.3,0.1,0.4,0.1c3.2,0.7,6.4-0.1,8.8-1.8L23.8,70.1z M38.6,17.1L38.3,18
	c-0.1,0.3-0.2,0.6-0.3,0.8C36.6,22,33.5,24,30.1,24c-0.6,0-1.2-0.1-1.9-0.2c-0.4-0.1-0.9-0.2-1.4-0.4l-1.3-0.5l-0.9,4
	c-0.3,1.2-1,2.2-2,2.9c-1,0.7-2.2,0.9-3.4,0.6c-1.2-0.3-2.2-1-2.9-2c-0.7-1-0.9-2.2-0.6-3.4l1.2-5.4l-0.7-0.5
	c-2.8-1.8-4.4-5-4.1-8.2l0.2-1c0.9-4,4.5-6.8,8.5-6.8c0.6,0,1.2,0.1,1.9,0.2c2,0.4,3.8,1.6,5,3.2l0.4,0.6l0.7-0.1
	c1.1-0.2,2.1-0.1,3.2,0.1C36.6,7.8,39.6,12.4,38.6,17.1z M40.1,24.2c-0.2-1-0.2-1.9-0.1-2.9l0.7-2.5c0,0,0,0,0,0
	c1.1-2.4,3.3-4.3,6-4.9c1-0.2,2.1-0.3,3.2-0.1l0.7,0.1l0.4-0.6c1.2-1.6,3-2.7,5-3.2c4.7-1,9.3,1.9,10.3,6.6l0.2,1
	c0.3,3.3-1.2,6.5-4.1,8.2l-0.7,0.5l1.2,5.4c0.3,1.2,0,2.4-0.6,3.4c-0.7,1-1.7,1.7-2.9,2c-1.2,0.3-2.4,0-3.4-0.6
	c-1-0.7-1.7-1.7-2-2.9l-0.9-4l-1.3,0.5c-0.5,0.2-0.9,0.3-1.4,0.4c-4.3,0.9-8.6-1.5-10.1-5.7L40.1,24.2z M42.1,31.4
	c1.9,1.3,4.1,2.1,6.5,2.1c0.8,0,1.6-0.1,2.4-0.3c0.1,0,0.3-0.1,0.4-0.1l0.3,1.2c0.4,1.8,1.5,3.4,3.1,4.4c1.1,0.7,2.4,1.1,3.8,1.1
	c0.5,0,1-0.1,1.5-0.2c1.8-0.4,3.4-1.5,4.4-3.1c1-1.6,1.3-3.4,0.9-5.3l-0.8-3.8c1.3-0.9,2.3-2.1,3.1-3.5l6.7,42.1l-5.7,1.2l0.5,2.4
	l5.6-1.2l0.7,4.1l-20.3,4.4L42.1,31.4z"/>
</svg>
