<?xml version="1.0" encoding="utf-8"?>
<!-- Generator: Adobe Illustrator 21.0.2, SVG Export Plug-In . SVG Version: 6.00 Build 0)  -->
<svg version="1.1" id="Layer_1" xmlns="http://www.w3.org/2000/svg" xmlns:xlink="http://www.w3.org/1999/xlink" x="0px" y="0px"
	 viewBox="0 0 78 82" style="enable-background:new 0 0 78 82;" xml:space="preserve">
<style type="text/css">
	.st0{fill:#ACACAC;}
</style>
<path class="st0" d="M75.3,65.9H2.5c-1.3,0-2.4,1.1-2.4,2.4c0,1.3,1.1,2.4,2.4,2.4h72.9c1.3,0,2.4-1.1,2.4-2.4
	C77.7,66.9,76.7,65.9,75.3,65.9z"/>
<path class="st0" d="M13.7,43.6c0.6,0.7,1.6,1,2.5,0.8l15.9-4.1l-1.4,10.2c-0.1,0.8,0.2,1.6,0.8,2.1c0.4,0.4,1,0.6,1.5,0.6
	c0.2,0,0.5,0,0.7-0.1l8.4-2.5c0.5-0.2,1-0.5,1.3-0.9L54,34.2l8.8-3.6c4.9-2,8.6-4.1,11-6.1c4.3-3.7,4.1-7,3.2-9.2
	c-0.8-2-2.8-4.3-7.8-4.3c-3.4,0-7.9,1.1-13.3,3.4L20.8,28.6l-10.1-7c-0.7-0.5-1.5-0.6-2.3-0.3l-7,2.9c-0.7,0.3-1.2,0.9-1.4,1.6
	c-0.2,0.7,0,1.5,0.5,2.1L13.7,43.6z M9.1,26.2l10.1,7c0.7,0.5,1.5,0.6,2.3,0.3l36.3-14.8c4.8-2,8.8-3,11.5-3c2.7,0,3.2,1,3.3,1.4
	c0.2,0.4,0.7,1.6-1.9,3.8c-2,1.7-5.4,3.6-9.7,5.3l-9.5,3.9c-0.4,0.2-0.8,0.5-1.1,0.9L39.9,46.2l-4,1.2l1.3-10
	c0.1-0.8-0.2-1.6-0.8-2.1c-0.4-0.4-1-0.6-1.6-0.6c-0.2,0-0.4,0-0.6,0.1l-17.8,4.6L6.3,27.3L9.1,26.2z"/>
</svg>
