<?xml version="1.0" encoding="utf-8"?>
<!-- Generator: Adobe Illustrator 21.0.2, SVG Export Plug-In . SVG Version: 6.00 Build 0)  -->
<svg version="1.1" id="Layer_1" xmlns="http://www.w3.org/2000/svg" xmlns:xlink="http://www.w3.org/1999/xlink" x="0px" y="0px"
	 viewBox="0 0 78 82" style="enable-background:new 0 0 78 82;" xml:space="preserve">
<style type="text/css">
	.st0{fill:#ACACAC;}
</style>
<path class="st0" d="M56.5,41.3H41.2v-3.1c0-2.5,2-4.5,4.5-4.5h14.9c4.5,0,8.1-3.6,8.1-8s-3.6-8-8.1-8H18.4c-2.5,0-4.5-2-4.5-4.5
	V7.5c0-1-0.8-1.8-1.8-1.8s-1.8,0.8-1.8,1.8v5.6c0,4.4,3.6,8,8.1,8h42.1c2.5,0,4.5,2,4.5,4.5s-2,4.5-4.5,4.5H45.7
	c-4.5,0-8.1,3.6-8.1,8v3.1H22.4c-9.8,0-17.8,8-17.8,17.7c0,9.8,8,17.7,17.8,17.7c5.3,0,9.7-2.4,12.6-6.8h8.8c3,4.5,7.3,6.8,12.6,6.8
	c9.8,0,17.8-8,17.8-17.7C74.3,49.2,66.4,41.3,56.5,41.3z M56.5,73.1c-4.4,0-7.7-2-10.1-6c-0.3-0.5-0.9-0.9-1.5-0.9H34.1
	c-0.6,0-1.2,0.3-1.5,0.9c-2.4,4-5.7,6-10.1,6c-7.8,0-14.2-6.4-14.2-14.2s6.4-14.2,14.2-14.2h34.1c7.8,0,14.2,6.4,14.2,14.2
	C70.8,66.8,64.4,73.1,56.5,73.1z M51,56c1.3,0,2.4,1.1,2.4,2.4c0,1.3-1.1,2.4-2.4,2.4c-1.3,0-2.4-1.1-2.4-2.4C48.6,57,49.7,56,51,56
	z M62.5,56c1.3,0,2.4,1.1,2.4,2.4c0,1.3-1.1,2.4-2.4,2.4c-1.3,0-2.4-1.1-2.4-2.4C60.1,57,61.1,56,62.5,56z M56.7,61.7
	c1.3,0,2.4,1.1,2.4,2.4c0,1.3-1.1,2.4-2.4,2.4s-2.4-1.1-2.4-2.4C54.3,62.8,55.4,61.7,56.7,61.7z M56.7,50.2c1.3,0,2.4,1.1,2.4,2.4
	c0,1.3-1.1,2.4-2.4,2.4s-2.4-1.1-2.4-2.4S55.4,50.2,56.7,50.2z M27.2,56.6h-3.6V53c0-1-0.8-1.8-1.8-1.8S20,52,20,53v3.6h-3.6
	c-1,0-1.8,0.8-1.8,1.8s0.8,1.8,1.8,1.8H20v3.6c0,1,0.8,1.8,1.8,1.8s1.8-0.8,1.8-1.8v-3.6h3.6c1,0,1.8-0.8,1.8-1.8
	C29,57.3,28.2,56.6,27.2,56.6z"/>
</svg>
